<?xml version="1.0" encoding="UTF-8"?>
<!-- Created with Inkscape (http://www.inkscape.org/) -->
<svg width="32" height="32" version="1.1" viewBox="0 0 8.4667 8.4667" xmlns="http://www.w3.org/2000/svg">
 <g transform="matrix(.25403 0 0 .256 -27.821 -20.041)" fill="none" stroke="#f7f9f2" stroke-width="1.3458">
  <g stroke-linecap="round">
   <path d="m129.43 91.754 1.1904-2.3631"/>
   <path d="m118.67 91.177-1.9626-1.7749"/>
   <path d="m123.63 88.721 1.3606-2.2693"/>
   <path d="m122.91 91.674-1.5501 2.1442"/>
   <path d="m127.35 87.888-0.75954 2.5344"/>
   <path d="m132.11 95.181-0.483-2.6013"/>
   <path d="m114.15 94.729 2.1733-1.5091"/>
   <path d="m127.82 92.859-1.0726 2.4187"/>
   <path d="m121.01 86.051-0.38838 2.6173"/>
   <path d="m129.82 88.544 2.2881-1.3289"/>
  </g>
  <g transform="translate(1.8287 -.43889)">
   <path d="m111.16 95.964c0-0.39468 0.0174-0.7853 0.0515-1.1711 0.5369-6.0771 5.212-10.965 11.189-11.829m3.8599 0.01025c5.9157 0.88724 10.541 5.7192 11.112 11.733 0.0393 0.41386 0.0594 0.83332 0.0594 1.2575m-28.95 1.9319s3.9688-3.9688 7.9375-1e-6c0 0 3.9688-3.9687 7.9375 0 3.9688-3.9687 7.9375 0 7.9375 0 3.9688-3.9687 7.9375 1e-6 7.9375 1e-6l-5.2917 13.229h-21.167zm10.583 13.229-2.6458-10.583m13.229 10.583 2.6458-10.583m-7.9375 10.583v-10.583" stroke-linecap="round" stroke-width="1.3458"/>
   <g transform="matrix(.39431 .39431 -.39431 .39431 101.92 6.3331)" stroke-width="2.4133">
    <path transform="matrix(0,1,1,0,0,0)" d="m61.823 124.71c0 1.6568 1.3431 3 3 3h6v-6c0-1.6568-1.3431-3-3-3s-3 1.3432-3 3c-1.6569 0-3 1.3432-3 3z" fill="none" stroke="#f7f9f2" stroke-linecap="round" stroke-width="2.4133"/>
   </g>
   <path d="m126.41 85.123s-0.99219-0.99219-1.9844 0m-0.14031 0s-0.99219-0.99219-1.9844 0" stroke-linecap="round" stroke-width="1.3458"/>
  </g>
  <path d="m137.11 94.907-1.9626-1.7749" stroke-linecap="round"/>
  <path d="m133.48 90.153 2.2881-1.3289" stroke-linecap="round"/>
 </g>
</svg>
