<?xml version="1.0" encoding="UTF-8"?>
<!-- Created with Inkscape (http://www.inkscape.org/) -->
<svg width="12.7mm" height="1.051mm" version="1.1" viewBox="0 0 12.7 1.051" xmlns="http://www.w3.org/2000/svg">
 <defs>
  <clipPath id="clip3-9">
   <path d="m253.34 197.54h18.762v17.23h-18.762z"/>
  </clipPath>
  <clipPath id="clip4-3">
   <path d="m272 198.2h94.504v13.805h-94.504z"/>
  </clipPath>
 </defs>
 <g transform="translate(-.0039181 .0034398)">
  <g transform="matrix(.061026 0 0 .061026 -9.6623 -12.059)" clip-path="url(#clip3-9)">
   <path d="m270.73 198.64c-1.6055-1.5039-4.0312-1.3789-5.7266-0.15234-1.4102 1.0273-2.2109 2.5039-2.7109 4.1211-0.35156-1.4258-0.95703-2.7383-2.1016-3.668-1.5078-1.2148-3.9062-1.5312-5.4375-0.21094-4.8476 4.1875 5.5859 13.656 8.1992 16.105 0.29688 0.27735 0.85547 0.41016 1.1562 0.0352 2.4805-3.1055 11.152-11.988 6.6211-16.23" fill="#110f0f"/>
  </g>
  <path d="m5.7524 0.7112c-1.0365 0.011442-2.073 0.022885-3.1095 0.034326-0.50728 0.0057248-1.0146 0.011205-1.5218 0.016686-0.2503 0.0028675-0.55686 0.049345-0.78523-0.080096-0.11538-0.065316-0.21073-0.18141-0.20143-0.32515 0.004762-0.075328 0.037426-0.14327 0.10179-0.18046 0.11299-0.065555 0.22384-0.029322 0.16639 0.12873 0.022647-0.062456-0.07366-0.089393-0.096068-0.027414-0.045293 0.12491 0.088916 0.24267 0.20024 0.16687 0.11252-0.076283 0.087009-0.24982-0.0028655-0.33064-0.11371-0.1025-0.29273-0.087963-0.38999 0.028845-0.10394 0.12444-0.10084 0.31705-0.017402 0.45197 0.11228 0.18165 0.32396 0.25173 0.52039 0.2689 0.31872 0.027891 0.64769 4.891e-4 0.96736-0.002867 0.65055-0.007392 1.3011-0.014542 1.9516-0.021692 0.73875-0.008104 1.4777-0.016209 2.2165-0.024315 0.064125-7.1311e-4 0.064125-0.10441 0-0.1037" fill="#110f0f" stroke="#000" stroke-width=".061026"/>
  <g transform="matrix(.061026 0 0 .061026 -9.6623 -12.059)" clip-path="url(#clip4-3)" stroke="#000">
   <path d="m365.21 199.95c-1.5977-1.9141-4.5352-2.1524-6.3945-0.47266-1.4727 1.3242-1.8945 4.168-0.0469 5.418 1.8281 1.2422 4.0156-0.6875 3.2812-2.7344-0.375-1.0156-1.9375-0.57422-1.5781 0.44921-0.9375-2.5898 0.875-3.1836 2.7344-2.1094 1.0508 0.60937 1.582 1.7227 1.6758 2.957 0.14062 2.3555-1.4258 4.2578-3.3164 5.3281-3.7344 2.1211-8.7539 1.3594-12.867 1.3125-8.3008-0.0898-16.621-0.17969-24.938-0.27344-16.977-0.1875-33.961-0.375-50.945-0.5625-1.0547-0.0117-1.0508 1.6875 0 1.6992l36.316 0.39843c10.656 0.11719 21.32 0.23438 31.984 0.35547 5.2383 0.0547 10.633 0.50391 15.852 0.0469 3.2227-0.28125 6.6914-1.4297 8.5234-4.4062 1.375-2.2109 1.4219-5.3672-0.28125-7.4062" fill="#110f0f" stroke="#000"/>
  </g>
 </g>
</svg>
